<?xml version="1.0" encoding="iso-8859-1"?>
<!-- Uploaded to: SVG Repo, www.svgrepo.com, Generator: SVG Repo Mixer Tools -->
<svg height="64" width="64" version="1.1" id="Layer_1" xmlns="http://www.w3.org/2000/svg" xmlns:xlink="http://www.w3.org/1999/xlink"
	 viewBox="0 0 512 512" xml:space="preserve">
<path style="fill:#9EB500;" d="M512,486.4c0,14.136-11.464,25.6-25.6,25.6H25.6C11.464,512,0,500.536,0,486.4V40.96
	c0-14.136,11.464-25.6,25.6-25.6h460.8c14.136,0,25.6,11.464,25.6,25.6V486.4z"/>
<path style="fill:#C8DE30;" d="M512,471.04c0,14.136-11.464,25.6-25.6,25.6H25.6c-14.136,0-25.6-11.464-25.6-25.6V25.6
	C0,11.464,11.464,0,25.6,0h460.8C500.536,0,512,11.464,512,25.6V471.04z"/>
<path style="fill:#AEC700;" d="M512,471.04V197.98l-0.65,0.748c-0.568,0.225,0.036-2.253,0.65-2.78v-0.143
	c-0.476,0.312-0.563-0.64,0-1.377v-0.379c-0.804,0.645-1.101-0.686,0-1.812v-0.005c-1.167,1.249-112.614-106.23-109.333-109.512
	c-16.353,17.362-21.197,40.054-12.221,54.267c-2.289-0.865-4.28,1.7-3.036,3.707l-1.188-0.768l0,0
	c-3.19-1.859-6.84-3.057-10.486-3.599l0,0c-17.188-2.545-34.54,7.163-45.978,19.308l-3.092,3.092l-7.721,7.721
	c0.594-1.111,1.336-2.217,2.422-3.302c-1.203,1.28-2.324,2.591-3.4,3.922c-0.568,0.225,1.459-3.384,2.734-4.588
	c-1.157,1.157-101.356-94.792-98.074-98.074c-16.353,17.362-21.197,40.054-12.221,54.267c-2.289-0.865-4.28,1.7-3.036,3.707
	c-13.86-9.124-32.445-3.891-45.292,4.495c-14.06,9.18-25.59,24.228-28.462,41.021l0,0c-1.536,8.991-0.205,17.48,4.142,24.09
	c-2.007-1.239-4.572,0.748-3.707,3.036c-14.213-8.975-36.905-4.132-54.267,12.221c3.282-3.282,100.931,96.916,102.042,96.323
	l-3.564,3.564l-6.753,6.753c-8.607,8.105-15.468,18.534-18.34,30.1c-1.418,5.704-1.792,11.633-0.691,17.418
	c0.451,2.36,2.55,11.054,5.217,11.899l-1.142-0.942c-1.894-1.894-5.151,0.184-4.193,2.714c-14.213-8.975-36.905-4.132-54.267,12.221
	c3.272-3.267,115.497,109.138,115.246,109.348h67.471l-0.917-0.916l1.121,0.916H486.4C500.536,496.64,512,485.176,512,471.04z"/>
<ellipse transform="matrix(-0.7071 0.7071 -0.7071 -0.7071 414.5562 149.9931)" style="fill:#FFFFFF;" cx="176.213" cy="160.854" rx="49.812" ry="35.456"/>
<g>
	<path style="fill:#7F2221;" d="M101.171,210.877c6.907,6.907,10.527,14.49,3.62,21.396c6.907-6.907,14.49-3.287,21.396,3.62
		s10.527,14.49,3.62,21.396c18.196-19.318,22.2-45.261,8.709-58.747c-13.491-13.491-39.434-9.482-58.747,8.709
		C86.682,200.346,94.264,203.965,101.171,210.877z"/>
	<path style="fill:#7F2221;" d="M138.235,192.317l7.045,7.045c0.998,0.998,0.998,2.621,0,3.62s-2.621,0.998-3.62,0l-7.045-7.045
		c-0.998-0.998-0.998-2.621,0-3.62S137.231,191.319,138.235,192.317z"/>
	<path style="fill:#7F2221;" d="M226.237,85.811c6.907,6.907,14.49,10.527,21.396,3.62c-6.907,6.907-3.287,14.49,3.62,21.396
		s14.49,10.527,21.396,3.62c-19.318,18.196-45.261,22.2-58.747,8.709c-13.491-13.491-9.482-39.434,8.709-58.747
		C215.706,71.322,219.325,78.904,226.237,85.811z"/>
	<path style="fill:#7F2221;" d="M207.677,122.875l7.045,7.045c0.998,0.998,2.621,0.998,3.62,0s0.998-2.621,0-3.62l-7.045-7.045
		c-0.998-0.998-2.621-0.998-3.62,0C206.679,120.253,206.679,121.871,207.677,122.875z"/>
</g>
<g>
	<path style="fill:#F15B00;" d="M169.16,203.459c3.261-0.558,6.579-1.526,9.897-2.816l-42.634-42.634
		c-1.29,3.318-2.258,6.636-2.816,9.897L169.16,203.459z"/>
	<path style="fill:#F15B00;" d="M183.265,118.246c-3.261,0.558-6.579,1.526-9.897,2.816l42.634,42.634
		c1.29-3.318,2.258-6.636,2.816-9.897L183.265,118.246z"/>
</g>
<path style="fill:#7F2221;" d="M220.093,365.481l161.244-161.249c19.451-19.451,23.997-46.449,10.148-60.293
	c-13.85-13.85-40.842-9.303-60.293,10.148c-0.502,0.502-0.957,1.034-1.439,1.546L171.494,313.892
	c-0.512,0.486-1.044,0.937-1.546,1.439c-19.451,19.451-23.997,46.449-10.148,60.293
	C173.645,389.478,200.637,384.932,220.093,365.481z"/>
<path style="fill:#FFFFFF;" d="M406.287,104.12c6.907,6.907,14.49,10.527,21.396,3.62c-6.907,6.907-3.287,14.49,3.62,21.396
	c6.907,6.907,14.49,10.527,21.396,3.62c-19.318,18.196-45.261,22.2-58.747,8.709c-13.491-13.491-9.482-39.434,8.709-58.747
	C395.761,89.631,399.38,97.208,406.287,104.12z"/>
<path style="fill:#BD221F;" d="M387.732,141.184l7.045,7.045c0.998,0.998,2.621,0.998,3.62,0c0.998-0.998,0.998-2.621,0-3.62
	l-7.045-7.045c-0.998-0.998-2.621-0.998-3.62,0S386.734,140.18,387.732,141.184z"/>
<path style="fill:#FFFFFF;" d="M119.48,390.932c6.907,6.907,10.527,14.49,3.62,21.396c6.907-6.907,14.49-3.287,21.396,3.62
	c6.907,6.907,10.527,14.49,3.62,21.396c18.196-19.318,22.2-45.261,8.709-58.747c-13.491-13.486-39.434-9.482-58.747,8.709
	C104.991,380.401,112.568,384.02,119.48,390.932z"/>
<path style="fill:#BD221F;" d="M156.544,372.372l7.045,7.045c0.998,0.998,0.998,2.621,0,3.62c-0.998,0.998-2.621,0.998-3.62,0
	l-7.045-7.045c-0.998-0.998-0.998-2.621,0-3.62C153.923,371.374,155.54,371.374,156.544,372.372z"/>
<path style="fill:#F15B00;" d="M381.338,204.232c1.766-1.766,3.364-3.61,4.879-5.484v-58.824
	c-6.313-3.681-14.167-4.772-22.456-3.436v85.32L381.338,204.232z"/>
<path style="fill:#E89F00;" d="M349.117,236.457v-95.206c-6.267,3.041-12.401,7.316-17.925,12.836
	c-0.502,0.502-0.957,1.034-1.439,1.546l-3.092,3.092v100.183L349.117,236.457z"/>
<polygon style="fill:#F15B00;" points="289.556,296.013 312.018,273.556 312.018,173.373 289.556,195.835 "/>
<path style="fill:#E89F00;" d="M178.248,383.508c7.071,0.492,14.828-1.024,22.456-4.475v-94.351l-22.456,22.456V383.508z"/>
<path style="fill:#F15B00;" d="M159.8,375.629c1.167,1.167,2.463,2.161,3.809,3.067v-56.064
	C149.683,341.084,147.615,363.443,159.8,375.629z"/>
<polygon style="fill:#E89F00;" points="252.457,333.117 274.913,310.661 274.913,210.478 252.457,232.934 "/>
<path style="fill:#F15B00;" d="M215.352,369.761c1.618-1.347,3.21-2.749,4.741-4.285l17.72-17.72V247.578l-22.456,22.456v99.727
	H215.352z"/>
<g>
	<path style="fill:#FBD800;" d="M349.117,236.457v-95.206c-6.267,3.041-12.401,7.316-17.925,12.836
		c-0.502,0.502-0.957,1.034-1.439,1.546l-3.092,3.092v100.183L349.117,236.457z"/>
	<polygon style="fill:#FBD800;" points="252.457,333.117 274.913,310.661 274.913,210.478 252.457,232.934 	"/>
	<path style="fill:#FBD800;" d="M178.248,307.139v76.365c7.071,0.492,14.828-1.024,22.456-4.475v-94.346L178.248,307.139z"/>
</g>
</svg>
