<?xml version="1.0"?>
<svg width="2060" height="512" xmlns="http://www.w3.org/2000/svg" xmlns:svg="http://www.w3.org/2000/svg" version="1.1" xml:space="preserve">
 <g class="layer">
  <g id="svg_1">
   <path d="m158.31,497.62c-28.58,0 -60.35,-16.68 -85,-44.62c-26.84,-30.42 -41.62,-68.97 -41.62,-108.53c0,-51.35 25.16,-96.33 45.37,-132.47c14.21,-25.43 25.41,-45.45 25.41,-62.16c0,-30.05 -36.64,-47.88 -52.39,-54.14l-2.29,-0.92l1.16,-2.17c4.7,-8.88 13.22,-22.24 27.14,-35.46c29.86,-28.38 69.43,-42.77 117.61,-42.77c48.61,0 84.63,25.43 107.06,75.6c13.88,31.04 18.09,62.18 19.26,74.13l0.15,1.58l-1.45,0.65c-22.13,9.95 -54.24,31.15 -72.8,52.43l-0.94,1.08l-1.37,-0.42c-10.55,-3.2 -21.48,-4.82 -32.5,-4.82c-27.94,0 -55.07,10.48 -76.4,29.49c-43.98,39.23 -54.63,104.55 -28.5,174.74c0.88,2.36 3.18,3.95 5.7,3.95c0.73,0 1.45,-0.13 2.12,-0.38c3.14,-1.17 4.75,-4.68 3.58,-7.83c-24.32,-65.31 -14.9,-125.64 25.19,-161.39c19.1,-17.03 43.38,-26.41 68.37,-26.41c15.69,0 31.42,3.79 45.5,10.95c0.87,0.44 1.79,0.67 2.75,0.67c2.31,0 4.39,-1.28 5.43,-3.33c0.74,-1.44 0.86,-3.09 0.36,-4.64c-0.5,-1.54 -1.58,-2.8 -3.02,-3.53c-0.75,-0.38 -1.5,-0.74 -2.25,-1.1l-2.76,-1.32l2.06,-2.24c20.79,-21.61 51.37,-38.84 64.64,-44.93l3.27,-1.5l-0.14,3.6c-0.18,4.81 0.13,7.43 0.13,7.45c0.35,3.11 2.94,5.43 6.04,5.43c0.23,0 0.46,0 0.69,-0.03c3.32,-0.37 5.73,-3.39 5.37,-6.73c-0.02,-0.11 -2.29,-21.13 12.45,-51.14l1.59,-3.24l2.17,2.89c5.27,7.04 12.65,20.44 17.89,44.26c0.62,2.77 3.11,4.78 5.94,4.78c0.44,0 0.88,-0.05 1.31,-0.15c1.59,-0.34 2.95,-1.29 3.82,-2.66c0.88,-1.37 1.16,-3 0.81,-4.59c-0.49,-2.28 -1.05,-4.59 -1.69,-7.07l-0.9,-3.46l3.5,0.74c31.35,6.64 51.81,27.56 63.46,43.93c13.87,19.48 19.76,38.48 20.86,44.16l0.16,0.84l-0.45,0.73c-1.27,2.08 -4.14,6.02 -9.12,9.09c-4.88,3.02 -10.76,4.54 -17.47,4.54c-7.48,0 -15.93,-1.89 -25.12,-5.62c-0.73,-0.3 -1.5,-0.45 -2.28,-0.45c-2.48,0 -4.7,1.49 -5.64,3.8c-0.61,1.5 -0.6,3.15 0.03,4.65c0.64,1.5 1.81,2.66 3.32,3.27c3.45,1.4 6.86,2.59 10.14,3.54l5,1.44l-4.51,2.6c-10.9,6.29 -32.5,13.79 -73.42,13.79c-1.8,0 -3.63,-0.01 -5.51,-0.04l-0.1,0c-3.3,0 -6.03,2.68 -6.08,5.98c-0.06,3.35 2.63,6.12 5.99,6.18l0.1,0c1.91,0.02 3.79,0.05 5.63,0.05c31.32,0 56.14,-4.17 73.76,-12.37c5.67,-2.49 12.21,-3.73 19.48,-3.73c8.87,0 16.86,1.94 20.84,3.86l0.11,0.06l0.11,0.06c4.67,2.94 11.29,19.33 13.59,26.35l0.63,1.93l-1.86,0.79c-6.15,2.65 -16.1,5.32 -24.44,5.32c-3.99,0 -7.44,-0.59 -10.25,-1.76c-3.79,-1.57 -7.64,-2.37 -11.45,-2.37c-13.83,0 -25.91,10.22 -35.91,20.21c-16.15,16.16 -60.93,34.74 -87.12,36.15l-2.37,0.13l0.04,-2.37c0.21,-13.1 -1.91,-24.94 -6.32,-35.2c-12.37,-28.84 -41.46,-44.13 -86.45,-45.44l-0.15,0c-3.33,0 -6.01,2.59 -6.11,5.91c-0.04,1.62 0.55,3.17 1.66,4.35c1.12,1.18 2.63,1.86 4.25,1.91c39.84,1.15 65.28,13.96 75.63,38.06c15.88,37.05 -7.4,87.91 -17.68,102.25l-0.66,0.92l-14.82,0c-3.36,0 -6.09,2.73 -6.09,6.08s2.73,6.08 6.09,6.08l61.92,0c9.5,0 25.87,3.85 28.85,29.61l0.28,2.46l-188.37,0zm259.14,-285.3c-5.79,0 -10.5,4.71 -10.5,10.5c0,5.8 4.71,10.51 10.5,10.51s10.51,-4.71 10.51,-10.51c0,-5.79 -4.72,-10.5 -10.51,-10.5z" fill="#D88C62" id="svg_2"/>
   <path d="m464.24,298.12c3.66,2.3 9.93,16.8 12.67,25.17c-7.35,3.16 -23.4,7.53 -32.97,3.55c-19.58,-8.14 -36.14,4.69 -49.78,18.31c-15.99,16 -60.25,34.14 -85.67,35.51c0.2,-12.38 -1.62,-24.75 -6.5,-36.1c-12.74,-29.71 -42.48,-45.44 -88.42,-46.78c-4.58,-0.11 -8.39,3.47 -8.53,8.05c-0.13,4.58 3.48,8.4 8.05,8.54c38.91,1.12 63.69,13.48 73.66,36.72c15.11,35.24 -6.36,84.63 -17.44,100.09l-13.69,0c-4.57,0 -8.29,3.72 -8.29,8.29s3.72,8.3 8.29,8.3l61.93,0c9.15,0 23.9,3.81 26.65,27.64l-185.89,0c-27.95,0 -59.1,-16.4 -83.34,-43.88c-26.48,-30.01 -41.06,-68.03 -41.06,-107.06c0,-50.79 25.01,-95.5 45.1,-131.43c14.35,-25.66 25.67,-45.9 25.67,-63.2c0,-31.08 -36.38,-49.27 -53.78,-56.2c4.29,-8.1 12.7,-21.57 26.71,-34.89c29.43,-27.97 68.49,-42.16 116.09,-42.16c47.66,0 83,25 105.04,74.3c13.96,31.21 18.05,62.91 19.08,73.44c-20.62,9.27 -54,30.56 -73.56,52.99c-38.15,-11.57 -79.98,-2.54 -111.02,25.14c-44.68,39.85 -55.57,106.07 -29.1,177.15c1.25,3.34 4.41,5.4 7.77,5.4c0.96,0 1.95,-0.17 2.9,-0.52c4.29,-1.61 6.47,-6.39 4.88,-10.68c-23.99,-64.41 -14.8,-123.85 24.59,-158.97c31.15,-27.78 74.88,-33.72 111.39,-15.14c4.08,2.08 9.08,0.45 11.16,-3.63c2.07,-4.08 0.44,-9.07 -3.64,-11.14c-0.79,-0.4 -1.57,-0.78 -2.36,-1.15c19.83,-20.62 49.01,-37.59 63.98,-44.46c-0.18,4.68 0.1,7.45 0.14,7.81c0.46,4.25 4.06,7.38 8.23,7.38c0.31,0 0.62,-0.01 0.93,-0.05c4.55,-0.51 7.83,-4.61 7.33,-9.16c-0.04,-0.23 -2.09,-20.76 12.24,-49.93c5.1,6.81 12.33,19.89 17.51,43.41c0.99,4.48 5.41,7.3 9.88,6.32c4.48,-0.99 7.3,-5.41 6.32,-9.89c-0.55,-2.49 -1.12,-4.85 -1.72,-7.15c30.39,6.43 50.42,26.59 62.12,43.05c13.39,18.79 19.32,37.23 20.49,43.29c-1.22,1.99 -3.86,5.56 -8.4,8.36c-9.74,6.01 -23.77,5.58 -40.59,-1.25c-4.24,-1.73 -9.08,0.32 -10.8,4.57c-1.73,4.23 0.32,9.07 4.56,10.8c3.62,1.47 7.07,2.66 10.36,3.62c-10.76,6.2 -33.31,14.15 -77.79,13.44c-0.04,0 -0.09,0 -0.13,0c-4.53,0 -8.23,3.63 -8.3,8.16c-0.07,4.58 3.59,8.35 8.16,8.43c1.96,0.02 3.88,0.04 5.78,0.04c37.36,0 60.51,-5.97 74.68,-12.57c14.16,-6.19 32.05,-2.96 38.43,0.12zm-34.07,-75.3c0,-7.01 -5.71,-12.71 -12.72,-12.71c-7.02,0 -12.72,5.7 -12.72,12.71c0,7.02 5.7,12.72 12.72,12.72c7.01,0 12.72,-5.7 12.72,-12.72z" fill="#D88C62" id="svg_3"/>
  </g>
  <g id="svg_4">
   <path d="m494.68,326.82c0,3.35 -1.78,6.22 -5.27,8.56c-7.44,4.96 -33.81,14.28 -51.84,6.78c-6.22,-2.59 -14.36,-2.59 -31.67,14.73c-19.32,19.31 -69.46,39.72 -98.82,40.42c-3.13,20.88 -10.89,40.5 -18.28,53.87l28.75,0c21.12,0 43.68,13.8 43.68,52.53c0,4.57 -3.71,8.29 -8.29,8.29l-194.63,0c-32.64,0 -68.45,-18.5 -95.79,-49.5c-29.15,-33.04 -45.2,-74.96 -45.2,-118.03c0,-55.12 26.17,-101.92 47.22,-139.53c12.64,-22.61 23.55,-42.13 23.55,-55.1c0,-13.76 -13.14,-24.64 -24.16,-31.34c-13.16,-7.99 -26.66,-12.15 -26.81,-12.2c-2.17,-0.66 -4,-2.2 -5,-4.24c-1.02,-2.05 -1.15,-4.42 -0.37,-6.56c0.38,-0.99 9.27,-24.58 33.78,-48.15c22.47,-21.6 62.96,-47.35 128.17,-47.35c54.17,0 95.8,29.24 120.38,84.54c9.87,22.24 15.07,44.28 17.78,59.99c2.7,-7.67 6.41,-16.1 11.48,-25.05l0,-16.25c0,-4.58 3.7,-8.3 8.29,-8.3c4.58,0 8.3,3.72 8.3,8.3l0,14.4c4.88,4.36 13.03,13.89 20.17,32.67c0.08,0.01 0.16,0.01 0.25,0.03c40.76,5.26 66.68,30.96 81.26,51.58c15.11,21.4 23.47,45.56 23.47,54.09c0,1.07 -0.21,2.14 -0.61,3.14c-0.09,0.23 -6.06,14.15 -22.2,20.89c3.72,0.92 6.89,2.04 9.29,3.21c3.64,1.75 9.31,6.06 16.54,22.95c1.4,3.24 6.58,16.26 6.58,20.63zm-17.77,-3.53c-2.74,-8.37 -9.01,-22.87 -12.67,-25.17c-6.38,-3.08 -24.27,-6.31 -38.43,-0.12c-14.18,6.6 -37.32,12.57 -74.69,12.57c-1.89,0 -3.81,-0.02 -5.77,-0.04c-4.58,-0.08 -8.24,-3.85 -8.16,-8.43c0.07,-4.53 3.77,-8.16 8.29,-8.16c0.05,0 0.09,0 0.14,0c44.47,0.71 67.03,-7.24 77.79,-13.45c-3.29,-0.95 -6.74,-2.14 -10.36,-3.61c-4.25,-1.73 -6.29,-6.57 -4.57,-10.81c1.73,-4.24 6.57,-6.29 10.81,-4.56c16.82,6.83 30.85,7.26 40.59,1.25c4.54,-2.8 7.18,-6.37 8.39,-8.36c-1.17,-6.06 -7.09,-24.5 -20.49,-43.3c-11.7,-16.45 -31.72,-36.61 -62.11,-43.05c0.6,2.3 1.17,4.67 1.71,7.16c0.99,4.48 -1.83,8.9 -6.31,9.89c-4.47,0.98 -8.89,-1.84 -9.89,-6.32c-5.17,-23.52 -12.4,-36.6 -17.5,-43.41c-14.33,29.17 -12.28,49.7 -12.24,49.92c0.49,4.56 -2.78,8.66 -7.34,9.17c-0.31,0.03 -0.62,0.05 -0.93,0.05c-4.16,0 -7.76,-3.13 -8.22,-7.38c-0.05,-0.37 -0.32,-3.13 -0.15,-7.81c-14.96,6.87 -44.14,23.84 -63.97,44.46c0.79,0.37 1.57,0.75 2.36,1.15c4.08,2.06 5.7,7.06 3.63,11.14c-2.07,4.08 -7.07,5.71 -11.15,3.63c-36.52,-18.58 -80.24,-12.64 -111.39,15.14c-39.39,35.12 -48.58,94.56 -24.6,158.97c1.59,4.29 -0.58,9.07 -4.87,10.67c-0.95,0.36 -1.94,0.52 -2.9,0.52c-3.36,0 -6.53,-2.05 -7.78,-5.39c-26.46,-71.08 -15.58,-137.3 29.11,-177.16c31.04,-27.67 72.86,-36.7 111.01,-25.13c19.57,-22.43 52.95,-43.73 73.56,-52.99c-1.02,-10.53 -5.12,-42.23 -19.07,-73.44c-22.04,-49.3 -57.38,-74.3 -105.05,-74.3c-47.59,0 -86.65,14.19 -116.09,42.16c-14,13.32 -22.41,26.79 -26.7,34.89c17.4,6.92 53.78,25.11 53.78,56.2c0,17.29 -11.33,37.54 -25.67,63.2c-20.09,35.93 -45.1,80.64 -45.1,131.43c0,39.03 14.58,77.05 41.06,107.06c24.23,27.48 55.39,43.88 83.34,43.88l185.89,0c-2.75,-23.83 -17.5,-27.64 -26.65,-27.64l-61.93,0c-4.57,0 -8.29,-3.72 -8.29,-8.3s3.72,-8.29 8.29,-8.29l13.69,0c11.08,-15.46 32.55,-64.85 17.44,-100.09c-9.97,-23.25 -34.75,-35.6 -73.66,-36.73c-4.57,-0.13 -8.18,-3.95 -8.05,-8.53s3.95,-8.16 8.53,-8.05c45.94,1.34 75.68,17.07 88.42,46.77c4.88,11.36 6.7,23.72 6.5,36.11c25.42,-1.37 69.68,-19.51 85.67,-35.51c13.64,-13.62 30.2,-26.45 49.78,-18.31c9.57,3.98 25.62,-0.39 32.97,-3.55z" fill="#3D484A" id="svg_5"/>
   <path d="m417.45,210.11c7.01,0 12.72,5.7 12.72,12.72c0,7.01 -5.71,12.71 -12.72,12.71c-7.02,0 -12.72,-5.7 -12.72,-12.71c0,-7.02 5.7,-12.72 12.72,-12.72z" fill="#3D484A" id="svg_6"/>
  </g>
  <text fill="#d88c62" font-family="Fantasy" font-size="320" font-weight="normal" id="svg_7" letter-spacing="0" stroke="#000000" stroke-width="0" text-anchor="middle" transform="matrix(1 0 0 1 0 0)" word-spacing="0" x="818" xml:space="preserve" y="382.18">API</text>
  <text fill="#3d484a" font-family="Fantasy" font-size="320" id="svg_8" stroke="#000000" stroke-width="0" text-anchor="middle" x="1568" xml:space="preserve" y="383">FOREST</text>
 </g>
</svg>
